<?xml version="1.0" encoding="UTF-8"?>
<svg xmlns="http://www.w3.org/2000/svg" xmlns:xlink="http://www.w3.org/1999/xlink" width="794px" height="1123px" viewBox="0 0 397 561" version="1.1">
<defs>
<clipPath id="clip1">
  <path d="M 42.625 39.617188 L 366.464844 39.617188 L 366.464844 363.164062 L 42.625 363.164062 Z M 42.625 39.617188 "/>
</clipPath>
<clipPath id="clip2">
  <path d="M 204.542969 363.164062 C 293.96875 363.164062 366.464844 290.738281 366.464844 201.390625 C 366.464844 112.046875 293.96875 39.617188 204.542969 39.617188 C 115.121094 39.617188 42.625 112.046875 42.625 201.390625 C 42.625 290.738281 115.121094 363.164062 204.542969 363.164062 Z M 204.542969 363.164062 "/>
</clipPath>
<clipPath id="clip3">
  <path d="M 204.542969 363.164062 C 293.96875 363.164062 366.464844 290.738281 366.464844 201.390625 C 366.464844 112.046875 293.96875 39.617188 204.542969 39.617188 C 115.121094 39.617188 42.625 112.046875 42.625 201.390625 C 42.625 290.738281 115.121094 363.164062 204.542969 363.164062 Z M 204.542969 363.164062 "/>
</clipPath>
<linearGradient id="linear0" gradientUnits="userSpaceOnUse" x1="128" y1="0" x2="128" y2="256" gradientTransform="matrix(-1.264988,0,0,-1.263862,366.463074,363.166292)">
<stop offset="0" style="stop-color:rgb(48.627451%,80.784314%,41.960784%);stop-opacity:1;"/>
<stop offset="0.0078125" style="stop-color:rgb(48.627451%,80.784314%,41.960784%);stop-opacity:1;"/>
<stop offset="0.015625" style="stop-color:rgb(49.019608%,81.176471%,42.352941%);stop-opacity:1;"/>
<stop offset="0.0234375" style="stop-color:rgb(49.411765%,81.176471%,42.745098%);stop-opacity:1;"/>
<stop offset="0.03125" style="stop-color:rgb(49.803922%,81.176471%,43.137255%);stop-opacity:1;"/>
<stop offset="0.0390625" style="stop-color:rgb(49.803922%,81.568627%,43.529412%);stop-opacity:1;"/>
<stop offset="0.046875" style="stop-color:rgb(50.196078%,81.568627%,43.529412%);stop-opacity:1;"/>
<stop offset="0.0546875" style="stop-color:rgb(50.588235%,81.568627%,43.921569%);stop-opacity:1;"/>
<stop offset="0.0625" style="stop-color:rgb(50.588235%,81.960784%,44.313725%);stop-opacity:1;"/>
<stop offset="0.0703125" style="stop-color:rgb(50.980392%,81.960784%,44.705882%);stop-opacity:1;"/>
<stop offset="0.078125" style="stop-color:rgb(51.372549%,82.352941%,44.705882%);stop-opacity:1;"/>
<stop offset="0.0859375" style="stop-color:rgb(51.764706%,82.352941%,45.098039%);stop-opacity:1;"/>
<stop offset="0.09375" style="stop-color:rgb(51.764706%,82.352941%,45.490196%);stop-opacity:1;"/>
<stop offset="0.101562" style="stop-color:rgb(52.156863%,82.745098%,45.882353%);stop-opacity:1;"/>
<stop offset="0.109375" style="stop-color:rgb(52.54902%,82.745098%,46.27451%);stop-opacity:1;"/>
<stop offset="0.117187" style="stop-color:rgb(52.54902%,83.137255%,46.27451%);stop-opacity:1;"/>
<stop offset="0.125" style="stop-color:rgb(52.941176%,83.137255%,46.666667%);stop-opacity:1;"/>
<stop offset="0.132812" style="stop-color:rgb(53.333333%,83.137255%,47.058824%);stop-opacity:1;"/>
<stop offset="0.140625" style="stop-color:rgb(53.72549%,83.529412%,47.45098%);stop-opacity:1;"/>
<stop offset="0.148438" style="stop-color:rgb(53.72549%,83.529412%,47.843137%);stop-opacity:1;"/>
<stop offset="0.15625" style="stop-color:rgb(54.117647%,83.529412%,47.843137%);stop-opacity:1;"/>
<stop offset="0.164062" style="stop-color:rgb(54.509804%,83.921569%,48.235294%);stop-opacity:1;"/>
<stop offset="0.171875" style="stop-color:rgb(54.509804%,83.921569%,48.627451%);stop-opacity:1;"/>
<stop offset="0.179687" style="stop-color:rgb(54.901961%,84.313725%,49.019608%);stop-opacity:1;"/>
<stop offset="0.1875" style="stop-color:rgb(55.294118%,84.313725%,49.411765%);stop-opacity:1;"/>
<stop offset="0.195313" style="stop-color:rgb(55.686275%,84.313725%,49.411765%);stop-opacity:1;"/>
<stop offset="0.203125" style="stop-color:rgb(55.686275%,84.705882%,49.803922%);stop-opacity:1;"/>
<stop offset="0.210938" style="stop-color:rgb(56.078431%,84.705882%,50.196078%);stop-opacity:1;"/>
<stop offset="0.21875" style="stop-color:rgb(56.470588%,85.098039%,50.588235%);stop-opacity:1;"/>
<stop offset="0.226562" style="stop-color:rgb(56.470588%,85.098039%,50.588235%);stop-opacity:1;"/>
<stop offset="0.234375" style="stop-color:rgb(56.862745%,85.098039%,50.980392%);stop-opacity:1;"/>
<stop offset="0.242187" style="stop-color:rgb(57.254902%,85.490196%,51.372549%);stop-opacity:1;"/>
<stop offset="0.25" style="stop-color:rgb(57.647059%,85.490196%,51.764706%);stop-opacity:1;"/>
<stop offset="0.257812" style="stop-color:rgb(57.647059%,85.490196%,52.156863%);stop-opacity:1;"/>
<stop offset="0.265625" style="stop-color:rgb(58.039216%,85.882353%,52.156863%);stop-opacity:1;"/>
<stop offset="0.273438" style="stop-color:rgb(58.431373%,85.882353%,52.54902%);stop-opacity:1;"/>
<stop offset="0.28125" style="stop-color:rgb(58.823529%,86.27451%,52.941176%);stop-opacity:1;"/>
<stop offset="0.289062" style="stop-color:rgb(58.823529%,86.27451%,53.333333%);stop-opacity:1;"/>
<stop offset="0.296875" style="stop-color:rgb(59.215686%,86.27451%,53.72549%);stop-opacity:1;"/>
<stop offset="0.304688" style="stop-color:rgb(59.607843%,86.666667%,53.72549%);stop-opacity:1;"/>
<stop offset="0.3125" style="stop-color:rgb(59.607843%,86.666667%,54.117647%);stop-opacity:1;"/>
<stop offset="0.320312" style="stop-color:rgb(60%,86.666667%,54.509804%);stop-opacity:1;"/>
<stop offset="0.328125" style="stop-color:rgb(60.392157%,87.058824%,54.901961%);stop-opacity:1;"/>
<stop offset="0.335937" style="stop-color:rgb(60.784314%,87.058824%,55.294118%);stop-opacity:1;"/>
<stop offset="0.34375" style="stop-color:rgb(60.784314%,87.45098%,55.294118%);stop-opacity:1;"/>
<stop offset="0.351562" style="stop-color:rgb(61.176471%,87.45098%,55.686275%);stop-opacity:1;"/>
<stop offset="0.359375" style="stop-color:rgb(61.568627%,87.45098%,56.078431%);stop-opacity:1;"/>
<stop offset="0.367187" style="stop-color:rgb(61.568627%,87.843137%,56.470588%);stop-opacity:1;"/>
<stop offset="0.375" style="stop-color:rgb(61.960784%,87.843137%,56.470588%);stop-opacity:1;"/>
<stop offset="0.382813" style="stop-color:rgb(62.352941%,88.235294%,56.862745%);stop-opacity:1;"/>
<stop offset="0.390625" style="stop-color:rgb(62.745098%,88.235294%,57.254902%);stop-opacity:1;"/>
<stop offset="0.398438" style="stop-color:rgb(62.745098%,88.235294%,57.647059%);stop-opacity:1;"/>
<stop offset="0.40625" style="stop-color:rgb(63.137255%,88.627451%,58.039216%);stop-opacity:1;"/>
<stop offset="0.414062" style="stop-color:rgb(63.529412%,88.627451%,58.039216%);stop-opacity:1;"/>
<stop offset="0.421875" style="stop-color:rgb(63.529412%,88.627451%,58.431373%);stop-opacity:1;"/>
<stop offset="0.429688" style="stop-color:rgb(63.921569%,89.019608%,58.823529%);stop-opacity:1;"/>
<stop offset="0.4375" style="stop-color:rgb(64.313725%,89.019608%,59.215686%);stop-opacity:1;"/>
<stop offset="0.445312" style="stop-color:rgb(64.705882%,89.411765%,59.607843%);stop-opacity:1;"/>
<stop offset="0.453125" style="stop-color:rgb(64.705882%,89.411765%,59.607843%);stop-opacity:1;"/>
<stop offset="0.460938" style="stop-color:rgb(65.098039%,89.411765%,60%);stop-opacity:1;"/>
<stop offset="0.46875" style="stop-color:rgb(65.490196%,89.803922%,60.392157%);stop-opacity:1;"/>
<stop offset="0.476562" style="stop-color:rgb(65.490196%,89.803922%,60.784314%);stop-opacity:1;"/>
<stop offset="0.484375" style="stop-color:rgb(65.882353%,90.196078%,61.176471%);stop-opacity:1;"/>
<stop offset="0.492187" style="stop-color:rgb(66.27451%,90.196078%,61.176471%);stop-opacity:1;"/>
<stop offset="0.5" style="stop-color:rgb(66.666667%,90.196078%,61.568627%);stop-opacity:1;"/>
<stop offset="0.507812" style="stop-color:rgb(66.666667%,90.588235%,61.960784%);stop-opacity:1;"/>
<stop offset="0.515625" style="stop-color:rgb(67.058824%,90.588235%,62.352941%);stop-opacity:1;"/>
<stop offset="0.523438" style="stop-color:rgb(67.45098%,90.588235%,62.352941%);stop-opacity:1;"/>
<stop offset="0.53125" style="stop-color:rgb(67.843137%,90.980392%,62.745098%);stop-opacity:1;"/>
<stop offset="0.539062" style="stop-color:rgb(67.843137%,90.980392%,63.137255%);stop-opacity:1;"/>
<stop offset="0.546875" style="stop-color:rgb(68.235294%,91.372549%,63.529412%);stop-opacity:1;"/>
<stop offset="0.554688" style="stop-color:rgb(68.627451%,91.372549%,63.921569%);stop-opacity:1;"/>
<stop offset="0.5625" style="stop-color:rgb(68.627451%,91.372549%,63.921569%);stop-opacity:1;"/>
<stop offset="0.570312" style="stop-color:rgb(69.019608%,91.764706%,64.313725%);stop-opacity:1;"/>
<stop offset="0.578125" style="stop-color:rgb(69.411765%,91.764706%,64.705882%);stop-opacity:1;"/>
<stop offset="0.585938" style="stop-color:rgb(69.803922%,92.156863%,65.098039%);stop-opacity:1;"/>
<stop offset="0.59375" style="stop-color:rgb(69.803922%,92.156863%,65.490196%);stop-opacity:1;"/>
<stop offset="0.601562" style="stop-color:rgb(70.196078%,92.156863%,65.490196%);stop-opacity:1;"/>
<stop offset="0.609375" style="stop-color:rgb(70.588235%,92.54902%,65.882353%);stop-opacity:1;"/>
<stop offset="0.617188" style="stop-color:rgb(70.588235%,92.54902%,66.27451%);stop-opacity:1;"/>
<stop offset="0.625" style="stop-color:rgb(70.980392%,92.54902%,66.666667%);stop-opacity:1;"/>
<stop offset="0.632812" style="stop-color:rgb(71.372549%,92.941176%,67.058824%);stop-opacity:1;"/>
<stop offset="0.640625" style="stop-color:rgb(71.764706%,92.941176%,67.058824%);stop-opacity:1;"/>
<stop offset="0.648437" style="stop-color:rgb(71.764706%,93.333333%,67.45098%);stop-opacity:1;"/>
<stop offset="0.65625" style="stop-color:rgb(72.156863%,93.333333%,67.843137%);stop-opacity:1;"/>
<stop offset="0.664062" style="stop-color:rgb(72.54902%,93.333333%,68.235294%);stop-opacity:1;"/>
<stop offset="0.671875" style="stop-color:rgb(72.54902%,93.72549%,68.235294%);stop-opacity:1;"/>
<stop offset="0.679687" style="stop-color:rgb(72.941176%,93.72549%,68.627451%);stop-opacity:1;"/>
<stop offset="0.6875" style="stop-color:rgb(73.333333%,93.72549%,69.019608%);stop-opacity:1;"/>
<stop offset="0.695312" style="stop-color:rgb(73.72549%,94.117647%,69.411765%);stop-opacity:1;"/>
<stop offset="0.703125" style="stop-color:rgb(73.72549%,94.117647%,69.803922%);stop-opacity:1;"/>
<stop offset="0.710937" style="stop-color:rgb(74.117647%,94.509804%,69.803922%);stop-opacity:1;"/>
<stop offset="0.71875" style="stop-color:rgb(74.509804%,94.509804%,70.196078%);stop-opacity:1;"/>
<stop offset="0.726562" style="stop-color:rgb(74.509804%,94.509804%,70.588235%);stop-opacity:1;"/>
<stop offset="0.734375" style="stop-color:rgb(74.901961%,94.901961%,70.980392%);stop-opacity:1;"/>
<stop offset="0.742188" style="stop-color:rgb(75.294118%,94.901961%,71.372549%);stop-opacity:1;"/>
<stop offset="0.75" style="stop-color:rgb(75.686275%,95.294118%,71.372549%);stop-opacity:1;"/>
<stop offset="0.757812" style="stop-color:rgb(75.686275%,95.294118%,71.764706%);stop-opacity:1;"/>
<stop offset="0.765625" style="stop-color:rgb(76.078431%,95.294118%,72.156863%);stop-opacity:1;"/>
<stop offset="0.773438" style="stop-color:rgb(76.470588%,95.686275%,72.54902%);stop-opacity:1;"/>
<stop offset="0.78125" style="stop-color:rgb(76.862745%,95.686275%,72.941176%);stop-opacity:1;"/>
<stop offset="0.789062" style="stop-color:rgb(76.862745%,95.686275%,72.941176%);stop-opacity:1;"/>
<stop offset="0.796875" style="stop-color:rgb(77.254902%,96.078431%,73.333333%);stop-opacity:1;"/>
<stop offset="0.804688" style="stop-color:rgb(77.647059%,96.078431%,73.72549%);stop-opacity:1;"/>
<stop offset="0.8125" style="stop-color:rgb(77.647059%,96.470588%,74.117647%);stop-opacity:1;"/>
<stop offset="0.820312" style="stop-color:rgb(78.039216%,96.470588%,74.117647%);stop-opacity:1;"/>
<stop offset="0.828125" style="stop-color:rgb(78.431373%,96.470588%,74.509804%);stop-opacity:1;"/>
<stop offset="0.835938" style="stop-color:rgb(78.823529%,96.862745%,74.901961%);stop-opacity:1;"/>
<stop offset="0.84375" style="stop-color:rgb(78.823529%,96.862745%,75.294118%);stop-opacity:1;"/>
<stop offset="0.851562" style="stop-color:rgb(79.215686%,97.254902%,75.686275%);stop-opacity:1;"/>
<stop offset="0.859375" style="stop-color:rgb(79.607843%,97.254902%,75.686275%);stop-opacity:1;"/>
<stop offset="0.867188" style="stop-color:rgb(79.607843%,97.254902%,76.078431%);stop-opacity:1;"/>
<stop offset="0.875" style="stop-color:rgb(80%,97.647059%,76.470588%);stop-opacity:1;"/>
<stop offset="0.882812" style="stop-color:rgb(80.392157%,97.647059%,76.862745%);stop-opacity:1;"/>
<stop offset="0.890625" style="stop-color:rgb(80.784314%,97.647059%,77.254902%);stop-opacity:1;"/>
<stop offset="0.898438" style="stop-color:rgb(80.784314%,98.039216%,77.254902%);stop-opacity:1;"/>
<stop offset="0.90625" style="stop-color:rgb(81.176471%,98.039216%,77.647059%);stop-opacity:1;"/>
<stop offset="0.914062" style="stop-color:rgb(81.568627%,98.431373%,78.039216%);stop-opacity:1;"/>
<stop offset="0.921875" style="stop-color:rgb(81.568627%,98.431373%,78.431373%);stop-opacity:1;"/>
<stop offset="0.929687" style="stop-color:rgb(81.960784%,98.431373%,78.823529%);stop-opacity:1;"/>
<stop offset="0.9375" style="stop-color:rgb(82.352941%,98.823529%,78.823529%);stop-opacity:1;"/>
<stop offset="0.945312" style="stop-color:rgb(82.745098%,98.823529%,79.215686%);stop-opacity:1;"/>
<stop offset="0.953125" style="stop-color:rgb(82.745098%,99.215686%,79.607843%);stop-opacity:1;"/>
<stop offset="0.960937" style="stop-color:rgb(83.137255%,99.215686%,80%);stop-opacity:1;"/>
<stop offset="0.96875" style="stop-color:rgb(83.529412%,99.215686%,80%);stop-opacity:1;"/>
<stop offset="0.976562" style="stop-color:rgb(83.529412%,99.607843%,80.392157%);stop-opacity:1;"/>
<stop offset="0.984375" style="stop-color:rgb(83.921569%,99.607843%,80.784314%);stop-opacity:1;"/>
<stop offset="0.992188" style="stop-color:rgb(84.313725%,99.607843%,81.176471%);stop-opacity:1;"/>
<stop offset="1" style="stop-color:rgb(84.705882%,100%,81.568627%);stop-opacity:1;"/>
</linearGradient>
<clipPath id="clip4">
  <path d="M 103.675781 122.699219 L 305.429688 122.699219 L 305.429688 191 L 103.675781 191 Z M 103.675781 122.699219 "/>
</clipPath>
<clipPath id="clip5">
  <path d="M 208 226.464844 L 282 226.464844 L 282 300.632812 L 208 300.632812 Z M 208 226.464844 "/>
</clipPath>
<clipPath id="clip6">
  <path d="M 127 226.464844 L 201 226.464844 L 201 300.632812 L 127 300.632812 Z M 127 226.464844 "/>
</clipPath>
</defs>
<g id="surface1">
<g clip-path="url(#clip1)" clip-rule="nonzero">
<g clip-path="url(#clip2)" clip-rule="nonzero">
<g clip-path="url(#clip3)" clip-rule="nonzero">
<path style=" stroke:none;fill-rule:nonzero;fill:url(#linear0);" d="M 366.464844 363.164062 L 366.464844 39.617188 L 42.625 39.617188 L 42.625 363.164062 Z M 366.464844 363.164062 "/>
</g>
</g>
</g>
<g clip-path="url(#clip4)" clip-rule="nonzero">
<path style=" stroke:none;fill-rule:nonzero;fill:rgb(0%,0%,0%);fill-opacity:1;" d="M 297.761719 178.753906 L 204.550781 122.746094 L 175.015625 140.511719 L 175.015625 124.886719 L 142.816406 124.886719 L 142.816406 159.855469 L 111.339844 178.753906 C 111.339844 178.753906 103.875 184.246094 103.675781 190.828125 L 204.550781 135.101562 L 305.429688 190.828125 C 305.230469 184.246094 297.761719 178.753906 297.761719 178.753906 Z M 297.761719 178.753906 "/>
</g>
<path style=" stroke:none;fill-rule:nonzero;fill:rgb(0%,0%,0%);fill-opacity:1;" d="M 180.621094 201.167969 C 179.496094 206.171875 178.203125 214.128906 176.910156 220.429688 C 177.558594 220.429688 178.203125 220.429688 178.847656 220.429688 C 180.097656 214.328125 180.988281 206.171875 180.621094 201.167969 Z M 180.621094 201.167969 "/>
<path style=" stroke:none;fill-rule:nonzero;fill:rgb(0%,0%,0%);fill-opacity:1;" d="M 149.792969 220.429688 C 153.0625 215.660156 155.527344 201.972656 153.304688 198.097656 C 153.425781 205.367188 152.578125 213.847656 148.707031 220.429688 C 149.066406 220.429688 149.433594 220.429688 149.792969 220.429688 Z M 149.792969 220.429688 "/>
<path style=" stroke:none;fill-rule:nonzero;fill:rgb(0%,0%,0%);fill-opacity:1;" d="M 230.175781 183.722656 C 226.824219 182.875 223.800781 183.761719 221.175781 185.984375 C 226.058594 184.527344 230.738281 183.964844 234.292969 189.332031 C 233.96875 186.265625 232.554688 184.328125 230.175781 183.722656 Z M 230.175781 183.722656 "/>
<g clip-path="url(#clip5)" clip-rule="nonzero">
<path style=" stroke:none;fill-rule:nonzero;fill:rgb(0%,0%,0%);fill-opacity:1;" d="M 279.808594 226.851562 C 260.398438 226.851562 241.027344 226.808594 221.621094 226.890625 L 208.304688 226.851562 L 208.304688 300.503906 L 208.585938 300.503906 C 209.636719 300.585938 210.808594 300.585938 212.015625 300.503906 L 281.945312 300.503906 L 281.984375 290.609375 L 281.984375 226.851562 L 280.410156 226.851562 C 280.210938 226.851562 280.007812 226.851562 279.808594 226.851562 Z M 242.363281 282.695312 C 242.363281 284.070312 241.835938 284.433594 240.585938 284.390625 C 238.042969 284.351562 235.5 284.390625 232.957031 284.390625 C 230.457031 284.390625 227.957031 284.351562 225.496094 284.390625 C 225.128906 284.390625 224.847656 284.351562 224.605469 284.269531 C 224.527344 284.027344 224.484375 283.746094 224.484375 283.382812 C 224.527344 280.878906 224.484375 278.414062 224.484375 275.914062 C 224.484375 273.367188 224.566406 270.824219 224.484375 268.277344 C 224.445312 267.027344 224.808594 266.503906 226.179688 266.503906 C 231.144531 266.542969 236.105469 266.542969 241.070312 266.503906 C 241.554688 266.503906 241.917969 266.542969 242.199219 266.664062 C 242.320312 266.945312 242.363281 267.3125 242.363281 267.796875 C 242.320312 272.761719 242.28125 277.730469 242.363281 282.695312 Z M 242.441406 259.195312 C 242.441406 260.324219 242.039062 260.730469 240.910156 260.730469 C 235.785156 260.730469 230.699219 260.730469 225.574219 260.769531 C 225.332031 260.769531 225.128906 260.769531 224.96875 260.730469 C 224.726562 260.488281 224.527344 260.203125 224.527344 260.003906 C 224.484375 254.511719 224.527344 248.980469 224.566406 243.484375 C 224.566406 243.28125 224.726562 243.121094 224.886719 242.761719 C 230.417969 242.761719 236.066406 242.71875 241.675781 242.800781 C 241.878906 242.800781 242.121094 242.960938 242.363281 243.164062 C 242.441406 243.324219 242.441406 243.566406 242.441406 243.851562 C 242.402344 248.9375 242.402344 254.066406 242.441406 259.195312 Z M 266.128906 283.988281 C 265.765625 284.152344 265.5625 284.3125 265.402344 284.3125 C 259.914062 284.351562 254.386719 284.390625 248.898438 284.351562 C 248.695312 284.3125 248.414062 284.152344 248.171875 283.910156 C 248.128906 283.707031 248.128906 283.542969 248.128906 283.300781 C 248.210938 278.175781 248.210938 273.085938 248.171875 267.957031 C 248.171875 266.828125 248.574219 266.421875 249.707031 266.421875 C 254.828125 266.464844 259.914062 266.464844 265.039062 266.421875 C 265.28125 266.421875 265.523438 266.464844 265.722656 266.503906 C 265.925781 266.746094 266.085938 266.988281 266.085938 267.1875 C 266.167969 272.804688 266.167969 278.414062 266.128906 283.988281 Z M 266.167969 251.519531 C 266.167969 254.105469 266.085938 256.652344 266.167969 259.195312 C 266.207031 260.40625 265.722656 260.808594 264.511719 260.808594 C 259.429688 260.769531 254.304688 260.769531 249.222656 260.808594 C 248.816406 260.808594 248.496094 260.769531 248.253906 260.648438 C 248.128906 260.40625 248.089844 260.082031 248.089844 259.679688 C 248.128906 254.589844 248.128906 249.460938 248.089844 244.375 C 248.050781 243.164062 248.453125 242.679688 249.707031 242.71875 C 252.285156 242.761719 254.828125 242.71875 257.371094 242.71875 C 259.792969 242.71875 262.214844 242.761719 264.636719 242.679688 C 265.199219 242.636719 265.644531 242.71875 265.964844 242.878906 C 266.167969 243.203125 266.207031 243.648438 266.207031 244.253906 C 266.128906 246.675781 266.167969 249.097656 266.167969 251.519531 Z M 266.167969 251.519531 "/>
</g>
<g clip-path="url(#clip6)" clip-rule="nonzero">
<path style=" stroke:none;fill-rule:nonzero;fill:rgb(0%,0%,0%);fill-opacity:1;" d="M 184.417969 226.6875 L 127.078125 226.6875 L 127.078125 231.855469 C 127.117188 250.472656 127.078125 269.089844 127.117188 287.703125 C 127.117188 288.1875 127.160156 288.671875 127.199219 289.15625 L 127.078125 289.117188 L 127.078125 300.585938 L 200.878906 300.585938 L 200.878906 226.6875 Z M 188.007812 252.125 C 188.410156 255.359375 189.175781 258.710938 188.652344 261.898438 C 188.25 264.726562 187.28125 267.3125 185.828125 269.613281 C 182.480469 274.941406 176.667969 278.539062 169.730469 279.382812 C 169.488281 279.425781 169.246094 279.425781 169.003906 279.46875 C 165.691406 279.75 163.113281 281.160156 161.214844 283.585938 C 159.316406 286.046875 157.90625 288.914062 156.292969 291.621094 C 156.171875 291.863281 156.050781 292.105469 156.011719 292.308594 C 155.929688 292.671875 155.484375 292.871094 155.160156 292.628906 L 143.621094 284.675781 C 143.378906 284.515625 143.300781 284.152344 143.460938 283.910156 C 146.324219 279.140625 146.203125 272.035156 143.257812 267.757812 C 142.128906 266.097656 141.238281 264.402344 140.59375 262.707031 C 138.859375 258.265625 138.660156 253.621094 139.828125 249.421875 C 141.441406 243.605469 145.636719 238.558594 151.972656 235.8125 C 152.621094 235.492188 153.304688 235.25 154.03125 235.007812 C 155.324219 234.601562 156.652344 234.117188 157.746094 235.367188 C 158.753906 236.457031 158.347656 237.628906 157.863281 238.761719 C 157.785156 238.882812 157.746094 239.003906 157.703125 239.125 C 156.171875 242.800781 154.636719 246.472656 153.105469 250.148438 C 152.941406 250.550781 152.738281 250.996094 152.578125 251.402344 C 151.773438 253.339844 151.972656 255.035156 153.425781 256.609375 C 155.605469 258.992188 157.746094 261.375 159.84375 263.835938 C 161.214844 265.453125 162.910156 266.019531 164.886719 265.613281 C 169.40625 264.648438 173.964844 263.636719 178.445312 262.503906 C 179.210938 262.300781 180.058594 261.496094 180.378906 260.769531 C 181.753906 257.859375 182.84375 254.792969 184.214844 251.886719 C 184.578125 251.160156 185.585938 250.3125 186.230469 250.351562 C 186.878906 250.390625 187.925781 251.441406 188.007812 252.125 Z M 188.007812 252.125 "/>
</g>
<path style=" stroke:none;fill-rule:nonzero;fill:rgb(0%,0%,0%);fill-opacity:1;" d="M 169.648438 268.683594 C 167.226562 269.332031 164.847656 270.015625 162.386719 268.480469 C 163.675781 271.269531 165.976562 272.398438 168.597656 271.511719 C 171.667969 270.5 174.652344 269.289062 177.636719 268.078125 C 178.96875 267.554688 180.21875 266.90625 181.511719 266.300781 C 181.429688 266.097656 181.347656 265.9375 181.308594 265.738281 C 177.433594 266.746094 173.519531 267.632812 169.648438 268.683594 Z M 169.648438 268.683594 "/>
<path style=" stroke:none;fill-rule:nonzero;fill:rgb(0%,0%,0%);fill-opacity:1;" d="M 153.871094 239.285156 C 150.441406 240.859375 147.816406 244.375 146.285156 248.453125 C 144.667969 252.734375 144.308594 257.621094 145.519531 261.496094 C 146.042969 263.152344 146.847656 264.605469 147.941406 265.777344 C 147.375 264.320312 146.972656 262.910156 146.6875 261.539062 C 145.71875 256.851562 146.285156 252.53125 147.980469 248.453125 C 149.308594 245.261719 151.328125 242.234375 153.871094 239.285156 Z M 153.871094 239.285156 "/>
<path style=" stroke:none;fill-rule:nonzero;fill:rgb(0%,0%,0%);fill-opacity:1;" d="M 200.757812 150 L 200.757812 148.105469 C 200.675781 147.703125 200.558594 147.460938 200.316406 147.257812 C 200.273438 147.21875 200.234375 147.136719 200.152344 147.09375 L 127.238281 188.851562 C 127.238281 190.949219 127.238281 193.011719 127.238281 195.109375 L 127.238281 207.261719 C 127.199219 211.703125 127.160156 216.269531 127.238281 220.386719 C 127.238281 220.386719 127.277344 220.429688 127.320312 220.429688 L 131.675781 220.429688 C 131.71875 220.429688 131.71875 220.429688 131.757812 220.429688 C 132.445312 220.429688 133.089844 220.429688 133.777344 220.429688 C 137.164062 220.386719 140.554688 220.429688 143.945312 220.429688 C 145.113281 220.429688 146.246094 220.429688 147.414062 220.429688 C 148.019531 218.527344 148.582031 215.339844 148.746094 213.683594 C 149.433594 206.496094 149.957031 199.269531 150.441406 192.082031 C 150.601562 189.457031 150.480469 189.457031 153.023438 189.457031 C 156.816406 189.457031 160.609375 189.574219 164.402344 189.414062 C 166.417969 189.332031 167.144531 189.902344 166.984375 191.921875 C 166.5 198.417969 166.136719 204.921875 165.734375 211.421875 C 165.816406 210.777344 166.175781 210.089844 166.300781 209.363281 C 167.1875 203.386719 168.074219 197.410156 168.800781 191.394531 C 169.003906 189.65625 169.40625 189.214844 172.109375 189.574219 C 176.832031 190.222656 181.589844 190.222656 186.3125 189.574219 C 189.015625 189.171875 189.660156 189.777344 189.5 191.515625 C 188.976562 197.53125 188.652344 203.589844 187.964844 209.605469 C 187.605469 213.078125 186.675781 216.472656 185.910156 220.429688 L 200.878906 220.429688 L 200.878906 157.878906 L 200.757812 158.121094 C 200.757812 155.171875 200.757812 152.425781 200.757812 150 Z M 135.832031 207.261719 C 135.347656 206.375 134.863281 205.445312 134.378906 204.558594 C 134.703125 204.394531 134.988281 204.234375 135.308594 204.074219 C 135.792969 204.964844 136.316406 205.890625 136.800781 206.777344 Z M 144.066406 207.789062 C 143.621094 207.871094 142.933594 207.667969 142.734375 207.34375 C 142.089844 206.253906 141.480469 205.125 141.039062 203.910156 C 140.878906 203.589844 141.238281 202.945312 141.5625 202.617188 C 141.722656 202.5 142.53125 202.742188 142.734375 203.023438 C 143.5 204.113281 144.144531 205.324219 144.792969 206.414062 C 144.46875 207.0625 144.347656 207.746094 144.066406 207.789062 Z M 164.078125 169.628906 C 164.320312 169.183594 164.5625 168.660156 165.007812 167.8125 C 164.925781 167.851562 164.886719 167.890625 164.804688 167.890625 L 172.550781 163.488281 C 173.277344 164.621094 173.925781 165.390625 174.371094 166.238281 C 175.015625 167.367188 175.417969 168.617188 176.0625 169.75 C 176.910156 171.242188 176.707031 171.648438 174.894531 171.6875 C 171.625 171.726562 168.355469 171.726562 165.089844 171.6875 C 163.355469 171.648438 163.152344 171.203125 164.078125 169.628906 Z M 189.300781 187.035156 L 178.847656 187.035156 C 169.847656 187.035156 160.890625 186.992188 151.894531 187.074219 C 150.117188 187.074219 149.472656 186.667969 149.511719 184.8125 C 149.675781 178.433594 154.191406 173.546875 160.691406 173.304688 C 166.542969 173.101562 172.390625 173.101562 178.242188 173.304688 C 185.464844 173.546875 190.308594 179.523438 189.300781 187.035156 Z M 189.300781 187.035156 "/>
<path style=" stroke:none;fill-rule:nonzero;fill:rgb(0%,0%,0%);fill-opacity:1;" d="M 281.984375 220.347656 L 281.984375 216.511719 C 281.945312 212.390625 281.984375 208.3125 281.984375 204.234375 C 281.984375 201.449219 281.984375 198.660156 281.984375 195.878906 C 281.984375 194.140625 281.984375 192.441406 281.984375 190.707031 L 281.984375 188.972656 L 214.113281 149.480469 L 209.636719 146.890625 C 209.3125 146.972656 209.070312 147.136719 208.910156 147.335938 C 208.503906 147.621094 208.386719 148.148438 208.386719 148.992188 L 208.386719 149.035156 C 208.386719 152.789062 208.386719 156.503906 208.386719 160.261719 C 208.425781 175.402344 208.386719 190.585938 208.425781 205.6875 L 208.386719 205.648438 L 208.386719 220.546875 L 234.691406 220.546875 C 234.652344 218.570312 234.652344 216.589844 234.574219 214.613281 C 234.410156 210.453125 234.089844 206.335938 233.925781 202.214844 C 233.808594 199.429688 234.773438 198.5 237.398438 198.5 C 238.6875 198.5 239.941406 198.621094 241.230469 198.5 C 242.84375 198.339844 243.449219 198.863281 243.488281 200.601562 C 243.613281 206.09375 243.894531 211.542969 244.097656 217.035156 C 244.214844 217.035156 244.339844 217.035156 244.457031 217.035156 C 244.699219 210.980469 244.941406 204.964844 245.183594 198.785156 C 247.285156 199.148438 247.285156 200.5625 247.285156 201.933594 C 247.285156 208.152344 247.324219 214.371094 247.285156 220.589844 L 281.824219 220.589844 C 281.863281 220.507812 281.945312 220.46875 281.984375 220.347656 Z M 269.152344 189.699219 C 266.53125 186.105469 263.425781 183.078125 259.550781 180.855469 C 253.621094 177.421875 248.414062 180.449219 248.292969 187.277344 C 248.253906 189.699219 248.171875 192.160156 248.332031 194.585938 C 248.496094 196.523438 247.6875 197.007812 245.910156 196.925781 C 243.003906 196.804688 240.140625 196.804688 237.238281 196.804688 C 234.089844 196.804688 234.210938 196.765625 233.402344 193.613281 C 233 191.960938 232.3125 190.222656 231.386719 188.808594 C 229.730469 186.304688 226.746094 185.617188 224.082031 186.953125 C 223.234375 187.355469 222.226562 187.679688 221.621094 188.324219 C 219.722656 190.304688 217.382812 190.386719 214.921875 190.261719 C 214.113281 190.222656 213.308594 190.304688 212.5 190.261719 C 210.28125 190.222656 209.070312 189.132812 209.03125 186.910156 C 208.949219 183.355469 208.949219 179.882812 209.03125 176.332031 C 209.070312 174.3125 210.160156 173.179688 212.175781 173.101562 C 214.113281 173.019531 216.089844 172.980469 218.027344 173.140625 C 218.878906 173.222656 219.804688 173.707031 220.488281 174.273438 C 223.839844 177.21875 227.066406 177.300781 230.457031 174.394531 C 232.433594 172.738281 234.652344 171.847656 237.277344 171.886719 C 239.898438 171.929688 242.519531 172.050781 245.144531 171.886719 C 248.816406 171.6875 252.167969 172.777344 255.472656 174.152344 C 256.324219 174.515625 257.089844 174.957031 258.417969 175.644531 C 264.433594 177.621094 270.644531 187.796875 270.644531 187.796875 C 270.808594 188.851562 270.96875 189.941406 271.128906 191.03125 C 270.96875 191.109375 270.808594 191.191406 270.644531 191.234375 C 270.160156 190.789062 269.597656 190.304688 269.152344 189.699219 Z M 269.152344 189.699219 "/>
<path style=" stroke:none;fill-rule:nonzero;fill:rgb(0%,0%,0%);fill-opacity:1;" d="M 69.523438 224.339844 L 76.535156 251.140625 L 53.554688 257.132812 L 51.035156 247.496094 L 68.328125 242.992188 L 63.835938 225.828125 Z M 69.523438 224.339844 "/>
<path style=" stroke:none;fill-rule:nonzero;fill:rgb(0%,0%,0%);fill-opacity:1;" d="M 68.703125 186.070312 L 68.796875 196.152344 L 64.933594 198.433594 L 65.078125 213.386719 L 68.984375 215.582031 L 69.089844 225.667969 L 45.214844 210.722656 L 45.121094 201.472656 Z M 59.089844 201.835938 L 51.921875 206.03125 L 59.171875 210.089844 Z M 59.089844 201.835938 "/>
<path style=" stroke:none;fill-rule:nonzero;fill:rgb(0%,0%,0%);fill-opacity:1;" d="M 85.597656 135.707031 L 82.074219 145.03125 L 67.910156 139.683594 L 78.929688 153.347656 L 76.304688 160.289062 L 58.992188 163.246094 L 73.160156 168.59375 L 69.636719 177.910156 L 47.417969 169.519531 L 51.597656 158.46875 L 71.273438 154.417969 L 59.191406 138.402344 L 63.378906 127.320312 Z M 85.597656 135.707031 "/>
<path style=" stroke:none;fill-rule:nonzero;fill:rgb(0%,0%,0%);fill-opacity:1;" d="M 110.847656 104.769531 L 104.546875 112.644531 L 100.109375 111.96875 L 90.765625 123.648438 L 92.398438 127.820312 L 86.097656 135.699219 L 77.046875 109.046875 L 82.828125 101.824219 Z M 93.421875 110.917969 L 85.222656 109.648438 L 88.265625 117.371094 Z M 93.421875 110.917969 "/>
<path style=" stroke:none;fill-rule:nonzero;fill:rgb(0%,0%,0%);fill-opacity:1;" d="M 120.246094 98.476562 L 112.652344 104.929688 L 97.257812 86.863281 L 104.851562 80.410156 Z M 120.246094 98.476562 "/>
<path style=" stroke:none;fill-rule:nonzero;fill:rgb(0%,0%,0%);fill-opacity:1;" d="M 134.363281 89.433594 C 131.613281 91.09375 129.21875 92.140625 127.1875 92.566406 C 125.148438 93 123.382812 92.960938 121.882812 92.453125 C 120.382812 91.949219 119.070312 91.109375 117.945312 89.945312 L 126.988281 84.472656 C 128.242188 85.03125 129.605469 84.875 131.070312 83.992188 C 132.535156 83.105469 133.3125 81.980469 133.394531 80.609375 C 133.394531 80.484375 133.367188 80.386719 133.320312 80.308594 C 133.167969 80.054688 132.71875 80.0625 131.96875 80.339844 C 131.21875 80.617188 130.148438 81.128906 128.769531 81.878906 C 127.03125 82.824219 125.148438 83.714844 123.125 84.554688 C 118.589844 86.421875 115.507812 86.007812 113.882812 83.316406 C 113.746094 83.09375 113.613281 82.847656 113.488281 82.578125 C 112.976562 81.035156 112.84375 79.492188 113.09375 77.933594 C 113.34375 76.375 114.132812 74.792969 115.457031 73.191406 C 116.777344 71.582031 118.8125 69.949219 121.5625 68.289062 C 124.3125 66.621094 126.703125 65.578125 128.738281 65.15625 C 130.773438 64.734375 132.542969 64.769531 134.050781 65.269531 C 135.554688 65.769531 136.867188 66.601562 137.988281 67.765625 L 128.9375 73.242188 C 127.6875 72.679688 126.328125 72.84375 124.863281 73.730469 C 123.398438 74.613281 122.617188 75.738281 122.53125 77.101562 C 122.53125 77.207031 122.550781 77.296875 122.59375 77.363281 C 122.730469 77.59375 123.15625 77.566406 123.863281 77.28125 C 124.578125 76.996094 125.585938 76.507812 126.894531 75.824219 C 128.199219 75.136719 129.617188 74.449219 131.144531 73.761719 C 132.679688 73.070312 134.191406 72.554688 135.6875 72.222656 C 137.179688 71.886719 138.523438 71.925781 139.71875 72.324219 C 140.648438 72.625 141.40625 73.261719 142 74.230469 C 142.164062 74.507812 142.3125 74.808594 142.445312 75.136719 C 142.96875 76.675781 143.097656 78.230469 142.84375 79.796875 C 142.585938 81.359375 141.792969 82.941406 140.46875 84.542969 C 139.148438 86.140625 137.113281 87.769531 134.363281 89.433594 Z M 134.363281 89.433594 "/>
<path style=" stroke:none;fill-rule:nonzero;fill:rgb(0%,0%,0%);fill-opacity:1;" d="M 162.820312 76.472656 C 157.234375 78.273438 152.75 78.441406 149.371094 76.984375 C 146.382812 75.699219 144.328125 73.304688 143.195312 69.792969 C 142.070312 66.28125 142.34375 63.136719 144.015625 60.351562 C 145.917969 57.210938 149.664062 54.742188 155.246094 52.941406 C 160.835938 51.148438 165.3125 50.972656 168.683594 52.421875 C 171.675781 53.707031 173.734375 56.105469 174.859375 59.613281 C 175.992188 63.125 175.71875 66.273438 174.039062 69.054688 C 172.148438 72.203125 168.40625 74.679688 162.820312 76.472656 Z M 160.871094 70.417969 C 163.164062 69.683594 164.632812 68.484375 165.277344 66.824219 C 165.796875 65.480469 165.824219 64.09375 165.359375 62.664062 C 164.894531 61.222656 164.0625 60.113281 162.871094 59.34375 C 161.371094 58.363281 159.476562 58.246094 157.183594 58.980469 C 154.898438 59.714844 153.429688 60.921875 152.777344 62.589844 C 152.25 63.917969 152.21875 65.300781 152.683594 66.742188 C 153.148438 68.175781 153.980469 69.28125 155.183594 70.074219 C 156.6875 71.039062 158.585938 71.152344 160.871094 70.417969 Z M 160.871094 70.417969 "/>
<path style=" stroke:none;fill-rule:nonzero;fill:rgb(0%,0%,0%);fill-opacity:1;" d="M 215.292969 68.820312 L 203.449219 69.371094 L 189.292969 53.96875 L 190.054688 70.003906 L 180.09375 70.472656 L 178.96875 46.777344 L 190.804688 46.214844 L 204.96875 61.542969 L 204.210938 45.589844 L 214.167969 45.121094 Z M 215.292969 68.820312 "/>
<path style=" stroke:none;fill-rule:nonzero;fill:rgb(0%,0%,0%);fill-opacity:1;" d="M 241.28125 74.710938 L 226.007812 70.285156 L 232.625 47.492188 L 247.894531 51.917969 C 254.125 53.722656 258.351562 55.894531 260.582031 58.433594 C 262.378906 60.488281 263.082031 62.765625 262.6875 65.269531 C 262.523438 66.367188 262.304688 67.402344 262.019531 68.371094 C 261.742188 69.328125 261.378906 70.316406 260.9375 71.335938 C 260.5 72.355469 259.847656 73.277344 258.988281 74.09375 C 258.125 74.921875 256.960938 75.546875 255.488281 75.980469 C 254.015625 76.417969 252.125 76.554688 249.8125 76.40625 C 247.503906 76.253906 244.660156 75.6875 241.28125 74.710938 Z M 242 68.796875 C 246.859375 70.214844 249.96875 69.78125 251.320312 67.507812 C 251.6875 66.871094 251.96875 66.207031 252.164062 65.519531 C 252.375 64.820312 252.492188 64.105469 252.519531 63.375 C 252.546875 62.640625 252.355469 61.914062 251.945312 61.191406 C 251.535156 60.46875 250.8125 59.78125 249.78125 59.117188 C 248.742188 58.460938 247.265625 57.847656 245.34375 57.289062 L 240.5625 55.902344 L 237.21875 67.414062 Z M 242 68.796875 "/>
<path style=" stroke:none;fill-rule:nonzero;fill:rgb(0%,0%,0%);fill-opacity:1;" d="M 272.03125 88.386719 C 267.03125 85.464844 264.117188 82.375 263.292969 79.125 C 262.597656 76.371094 263.210938 73.347656 265.136719 70.058594 L 271.136719 59.808594 L 279.742188 64.835938 L 273.742188 75.085938 C 272.90625 76.515625 272.492188 77.785156 272.5 78.894531 C 272.5 80.496094 273.417969 81.832031 275.25 82.902344 C 277.105469 83.988281 278.722656 84.136719 280.105469 83.339844 C 281.089844 82.769531 281.992188 81.78125 282.8125 80.382812 L 288.8125 70.132812 L 297.417969 75.160156 L 291.355469 85.523438 C 289.472656 88.734375 287.171875 90.71875 284.449219 91.476562 C 281.183594 92.34375 277.046875 91.3125 272.03125 88.386719 Z M 272.03125 88.386719 "/>
<path style=" stroke:none;fill-rule:nonzero;fill:rgb(0%,0%,0%);fill-opacity:1;" d="M 310.316406 119.355469 L 303.554688 112.800781 C 303.660156 112.070312 303.96875 111.316406 304.484375 110.53125 C 304.878906 109.898438 305.203125 109.230469 305.460938 108.523438 C 305.71875 107.816406 305.734375 107.035156 305.503906 106.179688 C 305.28125 105.328125 304.648438 104.375 303.609375 103.320312 L 298.960938 98.8125 L 294.191406 103.726562 L 287.035156 96.792969 L 303.578125 79.769531 L 315.210938 91.039062 C 317.988281 93.730469 320.027344 96.109375 321.328125 98.179688 C 322.625 100.246094 323.234375 102.105469 323.160156 103.757812 C 323.089844 105.414062 322.359375 106.957031 320.960938 108.386719 C 319.800781 109.585938 318.550781 110.328125 317.210938 110.613281 C 315.878906 110.898438 314.394531 110.710938 312.765625 110.054688 C 313.445312 111.613281 313.632812 112.882812 313.335938 113.863281 C 313.039062 114.839844 312.546875 115.757812 311.867188 116.621094 C 311.277344 117.390625 310.757812 118.300781 310.316406 119.355469 Z M 303.046875 94.609375 L 307.140625 98.554688 C 308.277344 99.660156 309.226562 100.484375 309.984375 101.019531 C 310.738281 101.5625 311.359375 101.886719 311.847656 102.007812 C 312.339844 102.132812 312.734375 102.125 313.023438 101.988281 C 313.320312 101.855469 313.582031 101.675781 313.804688 101.445312 C 314.027344 101.21875 314.203125 100.949219 314.328125 100.644531 C 314.457031 100.34375 314.453125 99.953125 314.316406 99.46875 C 314.175781 98.988281 313.828125 98.378906 313.265625 97.636719 C 312.707031 96.894531 311.859375 95.964844 310.722656 94.859375 L 306.640625 90.902344 Z M 303.046875 94.609375 "/>
<path style=" stroke:none;fill-rule:nonzero;fill:rgb(0%,0%,0%);fill-opacity:1;" d="M 330.410156 152.582031 L 325.253906 143.914062 L 327.449219 140 L 319.804688 127.136719 L 315.316406 127.210938 L 310.160156 118.539062 L 338.316406 119.464844 L 343.042969 127.417969 Z M 330.792969 134.121094 L 334.867188 126.90625 L 326.574219 127.023438 Z M 330.792969 134.121094 "/>
<path style=" stroke:none;fill-rule:nonzero;fill:rgb(0%,0%,0%);fill-opacity:1;" d="M 334.671875 169.667969 L 330.191406 153.257812 L 353.085938 147.023438 L 357.660156 163.789062 C 358.472656 166.769531 359.003906 169.257812 359.253906 171.25 C 359.507812 173.25 359.488281 174.847656 359.191406 176.046875 C 358.898438 177.257812 358.359375 178.164062 357.566406 178.773438 C 356.773438 179.390625 355.757812 179.871094 354.515625 180.210938 C 353.519531 180.445312 352.632812 180.398438 351.847656 180.066406 C 351.070312 179.738281 350.429688 179.277344 349.929688 178.683594 C 349.429688 178.089844 349.109375 177.542969 348.972656 177.039062 C 349.109375 177.535156 349.171875 178.144531 349.160156 178.867188 C 349.144531 179.597656 349.039062 180.324219 348.835938 181.054688 C 348.632812 181.789062 348.328125 182.441406 347.910156 183.011719 C 347.492188 183.578125 346.945312 183.957031 346.273438 184.144531 C 345.378906 184.386719 344.527344 184.503906 343.722656 184.5 C 342.921875 184.492188 342.148438 184.253906 341.398438 183.792969 C 340.65625 183.324219 339.921875 182.539062 339.191406 181.429688 C 338.460938 180.324219 337.726562 178.820312 336.984375 176.914062 C 336.238281 175.011719 335.46875 172.597656 334.671875 169.667969 Z M 347.941406 165.476562 C 348.320312 166.882812 348.6875 167.953125 349.035156 168.679688 C 349.382812 169.414062 349.734375 169.894531 350.097656 170.117188 C 350.464844 170.335938 350.863281 170.390625 351.296875 170.273438 C 351.746094 170.148438 352.070312 169.898438 352.265625 169.523438 C 352.464844 169.148438 352.527344 168.558594 352.453125 167.753906 C 352.382812 166.949219 352.15625 165.839844 351.773438 164.433594 L 350.054688 158.167969 L 346.222656 159.210938 Z M 340.171875 167.585938 C 340.558594 169.027344 340.914062 170.183594 341.234375 171.054688 C 341.550781 171.925781 341.902344 172.535156 342.285156 172.875 C 342.664062 173.21875 343.152344 173.3125 343.742188 173.15625 C 344.339844 172.992188 344.714844 172.667969 344.867188 172.175781 C 345.027344 171.683594 345.019531 170.984375 344.847656 170.074219 C 344.679688 169.164062 344.402344 167.988281 344.015625 166.546875 L 342.296875 160.28125 L 338.453125 161.320312 Z M 340.171875 167.585938 "/>
<path style=" stroke:none;fill-rule:nonzero;fill:rgb(0%,0%,0%);fill-opacity:1;" d="M 339.605469 215.667969 L 338.847656 187.972656 L 362.585938 187.320312 L 362.855469 197.277344 L 344.992188 197.769531 L 345.480469 215.5 Z M 339.605469 215.667969 "/>
<path style=" stroke:none;fill-rule:nonzero;fill:rgb(0%,0%,0%);fill-opacity:1;" d="M 333.90625 245.023438 L 339.363281 216.964844 L 362.675781 221.492188 L 357.46875 248.261719 L 351.695312 247.148438 L 355.007812 230.164062 L 351.351562 229.445312 L 348.550781 243.808594 L 344.070312 242.945312 L 346.875 228.582031 L 343.238281 227.875 L 339.675781 246.148438 Z M 333.90625 245.023438 "/>
</g>
</svg>
