<svg version="1.2" xmlns="http://www.w3.org/2000/svg" viewBox="0 0 663 663" width="663" height="663">
	<defs>
		<clipPath clipPathUnits="userSpaceOnUse" id="cp1">
			<path d="m8.25 8.23h647.68v647.1h-647.68z"/>
		</clipPath>
		<clipPath clipPathUnits="userSpaceOnUse" id="cp2">
			<path d="m332.09 655.33c178.85 0 323.84-144.85 323.84-323.55 0-178.69-144.99-323.55-323.84-323.55-178.85 0-323.84 144.86-323.84 323.55 0 178.7 144.99 323.55 323.84 323.55z"/>
		</clipPath>
		<clipPath clipPathUnits="userSpaceOnUse" id="cp3">
			<path d="m332.09 655.33c178.85 0 323.84-144.85 323.84-323.55 0-178.69-144.99-323.55-323.84-323.55-178.85 0-323.84 144.86-323.84 323.55 0 178.7 144.99 323.55 323.84 323.55z"/>
		</clipPath>
		<linearGradient id="g1" x2="1" gradientUnits="userSpaceOnUse" gradientTransform="matrix(0,-647.097,647.683,0,332.089,655.333)">
			<stop offset="0" stop-color="#7cce6b"/>
			<stop offset=".008" stop-color="#7cce6b"/>
			<stop offset=".016" stop-color="#7dcf6c"/>
			<stop offset=".023" stop-color="#7ecf6d"/>
			<stop offset=".031" stop-color="#7fcf6e"/>
			<stop offset=".039" stop-color="#7fd06f"/>
			<stop offset=".047" stop-color="#80d06f"/>
			<stop offset=".055" stop-color="#81d070"/>
			<stop offset=".063" stop-color="#81d171"/>
			<stop offset=".07" stop-color="#82d172"/>
			<stop offset=".078" stop-color="#83d272"/>
			<stop offset=".086" stop-color="#84d273"/>
			<stop offset=".094" stop-color="#84d274"/>
			<stop offset=".102" stop-color="#85d375"/>
			<stop offset=".109" stop-color="#86d376"/>
			<stop offset=".117" stop-color="#86d476"/>
			<stop offset=".125" stop-color="#87d477"/>
			<stop offset=".133" stop-color="#88d478"/>
			<stop offset=".141" stop-color="#89d579"/>
			<stop offset=".148" stop-color="#89d57a"/>
			<stop offset=".156" stop-color="#8ad57a"/>
			<stop offset=".164" stop-color="#8bd67b"/>
			<stop offset=".172" stop-color="#8bd67c"/>
			<stop offset=".18" stop-color="#8cd77d"/>
			<stop offset=".188" stop-color="#8dd77e"/>
			<stop offset=".195" stop-color="#8ed77e"/>
			<stop offset=".203" stop-color="#8ed87f"/>
			<stop offset=".211" stop-color="#8fd880"/>
			<stop offset=".219" stop-color="#90d981"/>
			<stop offset=".227" stop-color="#90d981"/>
			<stop offset=".234" stop-color="#91d982"/>
			<stop offset=".242" stop-color="#92da83"/>
			<stop offset=".25" stop-color="#93da84"/>
			<stop offset=".258" stop-color="#93da85"/>
			<stop offset=".266" stop-color="#94db85"/>
			<stop offset=".273" stop-color="#95db86"/>
			<stop offset=".281" stop-color="#96dc87"/>
			<stop offset=".289" stop-color="#96dc88"/>
			<stop offset=".297" stop-color="#97dc89"/>
			<stop offset=".305" stop-color="#98dd89"/>
			<stop offset=".313" stop-color="#98dd8a"/>
			<stop offset=".32" stop-color="#99dd8b"/>
			<stop offset=".328" stop-color="#9ade8c"/>
			<stop offset=".336" stop-color="#9bde8d"/>
			<stop offset=".344" stop-color="#9bdf8d"/>
			<stop offset=".352" stop-color="#9cdf8e"/>
			<stop offset=".359" stop-color="#9ddf8f"/>
			<stop offset=".367" stop-color="#9de090"/>
			<stop offset=".375" stop-color="#9ee090"/>
			<stop offset=".383" stop-color="#9fe191"/>
			<stop offset=".391" stop-color="#a0e192"/>
			<stop offset=".398" stop-color="#a0e193"/>
			<stop offset=".406" stop-color="#a1e294"/>
			<stop offset=".414" stop-color="#a2e294"/>
			<stop offset=".422" stop-color="#a2e295"/>
			<stop offset=".43" stop-color="#a3e396"/>
			<stop offset=".438" stop-color="#a4e397"/>
			<stop offset=".445" stop-color="#a5e498"/>
			<stop offset=".453" stop-color="#a5e498"/>
			<stop offset=".461" stop-color="#a6e499"/>
			<stop offset=".469" stop-color="#a7e59a"/>
			<stop offset=".477" stop-color="#a7e59b"/>
			<stop offset=".484" stop-color="#a8e69c"/>
			<stop offset=".492" stop-color="#a9e69c"/>
			<stop offset=".5" stop-color="#aae69d"/>
			<stop offset=".508" stop-color="#aae79e"/>
			<stop offset=".516" stop-color="#abe79f"/>
			<stop offset=".523" stop-color="#ace79f"/>
			<stop offset=".531" stop-color="#ade8a0"/>
			<stop offset=".539" stop-color="#ade8a1"/>
			<stop offset=".547" stop-color="#aee9a2"/>
			<stop offset=".555" stop-color="#afe9a3"/>
			<stop offset=".563" stop-color="#afe9a3"/>
			<stop offset=".57" stop-color="#b0eaa4"/>
			<stop offset=".578" stop-color="#b1eaa5"/>
			<stop offset=".586" stop-color="#b2eba6"/>
			<stop offset=".594" stop-color="#b2eba7"/>
			<stop offset=".602" stop-color="#b3eba7"/>
			<stop offset=".609" stop-color="#b4eca8"/>
			<stop offset=".617" stop-color="#b4eca9"/>
			<stop offset=".625" stop-color="#b5ecaa"/>
			<stop offset=".633" stop-color="#b6edab"/>
			<stop offset=".641" stop-color="#b7edab"/>
			<stop offset=".648" stop-color="#b7eeac"/>
			<stop offset=".656" stop-color="#b8eead"/>
			<stop offset=".664" stop-color="#b9eeae"/>
			<stop offset=".672" stop-color="#b9efae"/>
			<stop offset=".68" stop-color="#baefaf"/>
			<stop offset=".688" stop-color="#bbefb0"/>
			<stop offset=".695" stop-color="#bcf0b1"/>
			<stop offset=".703" stop-color="#bcf0b2"/>
			<stop offset=".711" stop-color="#bdf1b2"/>
			<stop offset=".719" stop-color="#bef1b3"/>
			<stop offset=".727" stop-color="#bef1b4"/>
			<stop offset=".734" stop-color="#bff2b5"/>
			<stop offset=".742" stop-color="#c0f2b6"/>
			<stop offset=".75" stop-color="#c1f3b6"/>
			<stop offset=".758" stop-color="#c1f3b7"/>
			<stop offset=".766" stop-color="#c2f3b8"/>
			<stop offset=".773" stop-color="#c3f4b9"/>
			<stop offset=".781" stop-color="#c4f4ba"/>
			<stop offset=".789" stop-color="#c4f4ba"/>
			<stop offset=".797" stop-color="#c5f5bb"/>
			<stop offset=".805" stop-color="#c6f5bc"/>
			<stop offset=".813" stop-color="#c6f6bd"/>
			<stop offset=".82" stop-color="#c7f6bd"/>
			<stop offset=".828" stop-color="#c8f6be"/>
			<stop offset=".836" stop-color="#c9f7bf"/>
			<stop offset=".844" stop-color="#c9f7c0"/>
			<stop offset=".852" stop-color="#caf8c1"/>
			<stop offset=".859" stop-color="#cbf8c1"/>
			<stop offset=".867" stop-color="#cbf8c2"/>
			<stop offset=".875" stop-color="#ccf9c3"/>
			<stop offset=".883" stop-color="#cdf9c4"/>
			<stop offset=".891" stop-color="#cef9c5"/>
			<stop offset=".898" stop-color="#cefac5"/>
			<stop offset=".906" stop-color="#cffac6"/>
			<stop offset=".914" stop-color="#d0fbc7"/>
			<stop offset=".922" stop-color="#d0fbc8"/>
			<stop offset=".93" stop-color="#d1fbc9"/>
			<stop offset=".938" stop-color="#d2fcc9"/>
			<stop offset=".945" stop-color="#d3fcca"/>
			<stop offset=".953" stop-color="#d3fdcb"/>
			<stop offset=".961" stop-color="#d4fdcc"/>
			<stop offset=".969" stop-color="#d5fdcc"/>
			<stop offset=".977" stop-color="#d5fecd"/>
			<stop offset=".984" stop-color="#d6fece"/>
			<stop offset=".992" stop-color="#d7fecf"/>
			<stop offset="1" stop-color="#d8ffd0"/>
		</linearGradient>
		<clipPath clipPathUnits="userSpaceOnUse" id="cp4">
			<path d="m130.35 174.4h403.51v136.6h-403.51z"/>
		</clipPath>
		<clipPath clipPathUnits="userSpaceOnUse" id="cp5">
			<path d="m339 381.93h148v148.34h-148z"/>
		</clipPath>
		<clipPath clipPathUnits="userSpaceOnUse" id="cp6">
			<path d="m177 381.93h148v148.34h-148z"/>
		</clipPath>
	</defs>
	<style>
		.s0 { fill: url(#g1) } 
		.s1 { fill: #000000 } 
	</style>
	<g id="surface1">
		<g id="Clip-Path" clip-path="url(#cp1)">
			<g>
				<g id="Clip-Path" clip-path="url(#cp2)">
					<g>
						<g id="Clip-Path" clip-path="url(#cp3)">
							<g>
								<path class="s0" d="m655.93 655.33v-647.1h-647.68v647.1z"/>
							</g>
						</g>
					</g>
				</g>
			</g>
		</g>
		<g id="Clip-Path" clip-path="url(#cp4)">
			<g>
				<path class="s1" d="m518.52 286.51l-186.42-112.02-59.07 35.53v-31.25h-64.4v69.94l-62.95 37.8c0 0-14.93 10.98-15.33 24.15l201.75-111.46 201.76 111.46c-0.4-13.17-15.34-24.15-15.34-24.15z"/>
			</g>
		</g>
		<path class="s1" d="m284.24 331.34c-2.25 10-4.83 25.92-7.42 38.52q1.94 0 3.88 0c2.5-12.2 4.28-28.52 3.54-38.52z"/>
		<path class="s1" d="m222.59 369.86c6.53-9.54 11.46-36.91 7.02-44.66 0.24 14.53-1.45 31.5-9.2 44.66q1.09 0 2.18 0z"/>
		<path class="s1" d="m383.35 296.45c-6.7-1.7-12.75 0.07-18 4.52 9.77-2.92 19.13-4.04 26.24 6.69-0.65-6.13-3.48-10-8.24-11.21z"/>
		<g id="Clip-Path" clip-path="url(#cp5)">
			<g>
				<path class="s1" d="m482.62 382.7c-38.82 0-77.57-0.08-116.38 0.08l-26.63-0.08v147.31h0.56c2.1 0.16 4.45 0.16 6.86 0h139.86l0.08-19.79v-127.52h-3.15q-0.6 0-1.2 0zm-74.89 111.69c0 2.75-1.06 3.48-3.56 3.39-5.08-0.08-10.17 0-15.26 0-5 0-10-0.08-14.92 0-0.73 0-1.29-0.08-1.78-0.24-0.16-0.49-0.24-1.05-0.24-1.77 0.08-5.01 0-9.94 0-14.94 0-5.1 0.16-10.18 0-15.28-0.08-2.5 0.65-3.54 3.39-3.54q14.89 0.12 29.78 0c0.97 0 1.7 0.08 2.26 0.32 0.24 0.56 0.33 1.3 0.33 2.26-0.09 9.93-0.17 19.87 0 29.8zm0.15-47c0 2.26-0.8 3.07-3.06 3.07-10.25 0-20.42 0-30.67 0.08-0.49 0-0.89 0-1.21-0.08-0.49-0.48-0.89-1.05-0.89-1.45-0.08-10.99 0-22.05 0.08-33.04 0-0.41 0.32-0.73 0.64-1.45 11.07 0 22.36-0.08 33.58 0.08 0.41 0 0.89 0.32 1.38 0.73 0.15 0.32 0.15 0.8 0.15 1.37-0.08 10.18-0.08 20.43 0 30.69zm47.38 49.59c-0.73 0.32-1.14 0.64-1.46 0.64-10.97 0.08-22.03 0.16-33 0.08-0.41-0.08-0.97-0.4-1.46-0.88-0.08-0.41-0.08-0.73-0.08-1.22 0.16-10.25 0.16-20.43 0.08-30.69 0-2.25 0.81-3.07 3.07-3.07 10.25 0.09 20.42 0.09 30.67 0 0.48 0 0.97 0.09 1.37 0.17 0.4 0.48 0.72 0.97 0.72 1.37 0.17 11.23 0.17 22.45 0.09 33.6zm0.08-64.94c0 5.17-0.17 10.26 0 15.35 0.07 2.42-0.89 3.23-3.32 3.23-10.16-0.08-20.41-0.08-30.57 0-0.82 0-1.46-0.08-1.94-0.32-0.25-0.49-0.33-1.14-0.33-1.94 0.08-10.18 0.08-20.44 0-30.61-0.08-2.42 0.73-3.39 3.23-3.31 5.16 0.08 10.25 0 15.33 0 4.85 0 9.69 0.08 14.53-0.08 1.13-0.09 2.02 0.08 2.66 0.4 0.41 0.65 0.48 1.54 0.48 2.75-0.15 4.84-0.07 9.69-0.07 14.53z"/>
			</g>
		</g>
		<g id="Clip-Path" clip-path="url(#cp6)">
			<g>
				<path class="s1" d="m291.84 382.38h-114.68v10.33c0.07 37.24 0 74.47 0.07 111.7 0 0.97 0.09 1.93 0.17 2.9l-0.24-0.08v22.94h147.6v-147.79zm7.18 50.87c0.8 6.47 2.33 13.17 1.29 19.55-0.81 5.65-2.75 10.82-5.65 15.43-6.7 10.65-18.32 17.85-32.2 19.54-0.48 0.08-0.97 0.08-1.45 0.17-6.63 0.56-11.78 3.38-15.58 8.23-3.8 4.92-6.62 10.66-9.84 16.07-0.24 0.49-0.49 0.97-0.56 1.38-0.17 0.72-1.06 1.12-1.71 0.64l-23.08-15.91c-0.48-0.32-0.64-1.05-0.32-1.53 5.73-9.54 5.49-23.75-0.4-32.3-2.26-3.32-4.04-6.72-5.33-10.11-3.47-8.88-3.87-18.17-1.53-26.57 3.22-11.63 11.62-21.72 24.29-27.22 1.29-0.64 2.66-1.12 4.11-1.6 2.59-0.82 5.25-1.79 7.43 0.71 2.02 2.18 1.21 4.53 0.24 6.79-0.16 0.25-0.24 0.49-0.32 0.73q-4.6 11.02-9.2 22.05c-0.33 0.8-0.73 1.69-1.05 2.5-1.61 3.88-1.21 7.27 1.69 10.42 4.36 4.76 8.64 9.53 12.84 14.45 2.74 3.24 6.13 4.37 10.09 3.56 9.03-1.93 18.15-3.96 27.11-6.22 1.53-0.41 3.23-2.02 3.87-3.47 2.75-5.82 4.93-11.95 7.67-17.77 0.73-1.45 2.74-3.15 4.03-3.07 1.3 0.08 3.39 2.18 3.56 3.55z"/>
			</g>
		</g>
		<path class="s1" d="m262.3 466.37c-4.85 1.29-9.6 2.66-14.53-0.41 2.58 5.58 7.18 7.84 12.43 6.06 6.14-2.02 12.1-4.44 18.07-6.86 2.67-1.05 5.17-2.35 7.75-3.56-0.16-0.4-0.32-0.73-0.4-1.12-7.75 2.01-15.58 3.79-23.32 5.89z"/>
		<path class="s1" d="m230.74 407.57c-6.86 3.15-12.11 10.18-15.17 18.34-3.23 8.56-3.95 18.33-1.53 26.08 1.05 3.31 2.66 6.22 4.84 8.56-1.13-2.91-1.93-5.73-2.51-8.47-1.93-9.38-0.8-18.02 2.59-26.17 2.66-6.39 6.7-12.44 11.78-18.34z"/>
		<path class="s1" d="m324.52 229v-3.79c-0.17-0.8-0.4-1.29-0.89-1.69-0.08-0.08-0.16-0.25-0.33-0.33l-145.82 83.51c0 4.2 0 8.32 0 12.52v24.3c-0.08 8.89-0.16 18.02 0 26.25 0 0 0.07 0.09 0.16 0.09h8.71c0.09 0 0.09 0 0.17 0 1.37 0 2.66 0 4.03 0 6.78-0.09 13.56 0 20.34 0 2.34 0 4.6 0 6.94 0 1.21-3.81 2.33-10.18 2.66-13.49 1.38-14.38 2.42-28.83 3.39-43.21 0.32-5.25 0.08-5.25 5.17-5.25 7.58 0 15.17 0.24 22.75-0.08 4.04-0.17 5.49 0.97 5.17 5.01-0.97 13-1.7 26-2.5 39 0.16-1.29 0.88-2.66 1.13-4.11 1.78-11.96 3.55-23.91 5-35.94 0.41-3.48 1.21-4.36 6.62-3.64 9.44 1.3 18.96 1.3 28.41 0 5.4-0.81 6.69 0.4 6.37 3.88-1.05 12.03-1.7 24.15-3.07 36.18-0.72 6.95-2.58 13.74-4.11 21.65h29.94v-125.1l-0.24 0.48c0-5.9 0-11.39 0-16.24zm-129.86 114.52c-0.96-1.77-1.93-3.63-2.9-5.4 0.65-0.33 1.22-0.65 1.86-0.97 0.97 1.78 2.01 3.63 2.98 5.4zm16.47 1.06c-0.89 0.16-2.27-0.24-2.66-0.89-1.29-2.18-2.51-4.44-3.39-6.87-0.32-0.64 0.39-1.93 1.04-2.58 0.32-0.24 1.94 0.25 2.35 0.81 1.53 2.18 2.82 4.6 4.11 6.78-0.64 1.3-0.89 2.66-1.45 2.75zm40.02-76.32c0.49-0.89 0.97-1.94 1.86-3.63-0.16 0.07-0.24 0.15-0.4 0.15l15.49-8.8c1.45 2.26 2.75 3.8 3.64 5.5 1.29 2.26 2.09 4.76 3.38 7.02 1.7 2.99 1.29 3.8-2.33 3.88q-9.81 0.11-19.61 0c-3.47-0.08-3.88-0.97-2.03-4.12zm50.45 34.81h-20.91c-18 0-35.91-0.08-53.9 0.08-3.56 0-4.85-0.81-4.77-4.52 0.33-12.76 9.36-22.54 22.36-23.02q17.55-0.61 35.1 0c14.45 0.48 24.13 12.44 22.12 27.46z"/>
		<path class="s1" d="m486.97 369.7v-7.68c-0.08-8.24 0-16.39 0-24.55q0-8.36 0-16.71c0-3.48 0-6.88 0-10.35v-3.46l-135.74-78.99-8.96-5.18c-0.65 0.17-1.13 0.49-1.45 0.89-0.81 0.57-1.05 1.63-1.05 3.31v0.09c0 7.51 0 14.94 0 22.45 0.08 30.28 0 60.65 0.08 90.86l-0.08-0.08v29.79h52.61c-0.08-3.95-0.08-7.91-0.23-11.86-0.33-8.32-0.97-16.56-1.3-24.8-0.23-5.57 1.7-7.43 6.95-7.43 2.57 0 5.08 0.24 7.66 0 3.23-0.32 4.44 0.73 4.52 4.2 0.25 10.99 0.81 21.89 1.22 32.87q0.35 0 0.71 0c0.49-12.11 0.97-24.14 1.46-36.5 4.2 0.73 4.2 3.56 4.2 6.3 0 12.43 0.08 24.87 0 37.31h69.08c0.08-0.16 0.24-0.24 0.32-0.48zm-25.67-61.3c-5.24-7.19-11.45-13.24-19.2-17.69-11.86-6.87-22.27-0.81-22.51 12.84-0.08 4.85-0.25 9.77 0.07 14.62 0.33 3.88-1.29 4.85-4.84 4.68-5.81-0.24-11.54-0.24-17.34-0.24-6.3 0-6.06-0.08-7.68-6.38-0.8-3.31-2.18-6.78-4.03-9.61-3.31-5.01-9.28-6.39-14.61-3.71-1.69 0.8-3.71 1.45-4.92 2.74-3.79 3.96-8.47 4.12-13.4 3.87-1.61-0.07-3.22 0.09-4.84 0-4.44-0.07-6.86-2.25-6.94-6.7-0.16-7.11-0.16-14.05 0-21.16 0.08-4.03 2.26-6.3 6.29-6.46 3.88-0.16 7.83-0.24 11.7 0.08 1.71 0.17 3.56 1.13 4.93 2.27 6.7 5.89 13.15 6.05 19.93 0.24 3.96-3.31 8.39-5.09 13.64-5.02 5.25 0.09 10.49 0.33 15.74 0 7.34-0.39 14.05 1.78 20.66 4.53 1.7 0.73 3.23 1.61 5.89 2.99 12.03 3.95 24.45 24.3 24.45 24.3 0.33 2.11 0.65 4.29 0.97 6.47-0.32 0.16-0.64 0.32-0.97 0.41-0.97-0.89-2.09-1.86-2.99-3.07z"/>
		<path class="s1" d="m62.05 377.68l14.02 53.6-45.96 11.99-5.04-19.28 34.59-9.01-8.99-34.32z"/>
		<path class="s1" d="m60.41 301.14l0.18 20.16-7.72 4.57 0.29 29.9 7.81 4.39 0.21 20.18-47.75-29.89-0.19-18.5zm-19.22 31.53l-14.34 8.39 14.5 8.11z"/>
		<path class="s1" d="m94.2 200.41l-7.05 18.65-28.33-10.69 22.04 27.33-5.25 13.88-34.63 5.91 28.34 10.7-7.05 18.63-44.43-16.78 8.36-22.1 39.35-8.1-24.17-32.04 8.38-22.16z"/>
		<path class="s1" d="m144.7 138.54l-12.61 15.75-8.87-1.35-18.69 23.36 3.27 8.34-12.6 15.76-18.11-53.31 11.57-14.44zm-34.86 12.3l-16.39-2.54 6.08 15.44z"/>
		<path class="s1" d="m163.49 125.95l-15.19 12.91-30.78-36.13 15.18-12.91z"/>
		<path class="s1" d="m191.73 107.87q-8.26 4.98-14.35 6.26-6.12 1.3-10.61-0.22-4.5-1.52-7.88-5.02l18.09-10.94q3.76 1.68 8.16-0.97 4.4-2.65 4.65-6.76 0-0.37-0.15-0.6-0.45-0.77-2.7 0.06-2.26 0.83-6.4 3.08-5.22 2.83-11.29 5.35-13.61 5.6-18.48-2.48-0.42-0.67-0.79-1.47-1.54-4.62-0.79-9.29 0.75-4.68 4.72-9.49 3.97-4.82 12.22-9.8 8.24-5 14.35-6.27 6.1-1.27 10.62 0.23 4.51 1.5 7.88 4.99l-18.1 10.95q-3.76-1.68-8.15 0.98-4.4 2.65-4.67 6.74 0 0.32 0.13 0.53 0.41 0.69 2.54-0.17 2.14-0.86 6.06-2.91 3.92-2.06 8.5-4.13 4.6-2.07 9.09-3.07 4.47-1 8.06 0.2 2.78 0.9 4.56 3.81 0.49 0.83 0.89 1.81 1.57 4.62 0.8 9.32-0.78 4.69-4.75 9.5-3.96 4.79-12.21 9.78z"/>
		<path class="s1" d="m248.64 81.95q-16.76 5.39-26.9 1.02-8.96-3.85-12.35-14.38-3.37-10.54 1.64-18.89 5.71-9.42 22.46-14.82 16.77-5.38 26.88-1.04 8.97 3.86 12.35 14.39 3.4 10.53-1.64 18.88-5.68 9.45-22.44 14.84zm-3.9-12.11q6.88-2.21 8.81-7.19 1.56-4.03 0.17-8.32-1.4-4.33-4.98-6.64-4.5-2.94-11.37-0.73-6.86 2.21-8.82 7.22-1.58 3.98-0.18 8.3 1.39 4.3 5 6.67 4.51 2.89 11.37 0.69z"/>
		<path class="s1" d="m353.59 66.64l-23.69 1.1-28.31-30.8 1.52 32.07-19.92 0.94-2.25-47.4 23.67-1.12 28.33 30.66-1.52-31.91 19.92-0.94z"/>
		<path class="s1" d="m405.56 78.42l-30.54-8.85 13.23-45.59 30.54 8.86q18.69 5.41 25.37 13.03 5.4 6.16 4.21 13.67-0.48 3.29-1.33 6.2-0.84 2.87-2.17 5.93-1.31 3.06-3.89 5.52-2.59 2.48-7 3.77-4.42 1.31-11.36 0.85-6.92-0.46-17.06-3.39zm1.44-11.83q14.58 4.25 18.64-2.57 1.1-1.92 1.69-3.98 0.63-2.1 0.71-4.29 0.08-2.2-1.15-4.37-1.23-2.16-4.33-4.15-3.11-1.97-8.87-3.65l-9.57-2.78-6.68 23.03z"/>
		<path class="s1" d="m467.06 105.77q-15-8.77-17.47-18.52-2.09-8.26 3.68-18.13l12-20.5 17.21 10.05-12 20.5q-2.5 4.29-2.48 7.62 0 4.8 5.5 8.01 5.56 3.27 9.71 0.88 2.95-1.72 5.41-5.91l12-20.5 17.22 10.05-12.13 20.73q-5.65 9.63-13.81 11.9-9.79 2.6-24.84-6.18z"/>
		<path class="s1" d="m543.63 167.71l-13.52-13.11q0.31-2.19 1.86-4.54 1.18-1.89 1.95-4.01 0.78-2.12 0.09-4.69-0.67-2.56-3.79-5.72l-9.3-9.02-9.54 9.83-14.31-13.86 33.09-34.05 23.26 22.54q8.33 8.07 12.24 14.28 3.88 6.2 3.66 11.16-0.21 4.96-4.4 9.25-3.48 3.6-7.5 4.46-4 0.85-8.89-1.12 2.04 4.68 1.14 7.62-0.89 2.92-2.94 5.51-1.77 2.31-3.1 5.47zm-14.54-49.49l8.19 7.89q3.41 3.32 5.69 4.93 2.26 1.62 3.73 1.98 1.48 0.37 2.35-0.04 0.89-0.4 1.56-1.09 0.67-0.68 1.05-1.6 0.38-0.9-0.03-2.35-0.42-1.44-2.1-3.67-1.67-2.23-5.08-5.55l-8.17-7.92z"/>
		<path class="s1" d="m583.82 234.16l-10.31-17.33 4.39-7.83-15.29-25.73-8.98 0.15-10.31-17.34 56.31 1.85 9.46 15.91zm0.76-36.93l8.15-14.43-16.59 0.24z"/>
		<path class="s1" d="m592.34 268.34l-8.96-32.82 45.79-12.47 9.15 33.53q2.44 8.94 3.19 14.92 0.76 6-0.13 9.59-0.87 3.63-3.25 5.46-2.37 1.85-6.1 2.87-2.98 0.71-5.33-0.29-2.34-0.98-3.84-2.76-1.5-1.78-1.91-3.29 0.41 1.49 0.37 3.65-0.04 2.19-0.65 4.38-0.6 2.2-1.85 3.91-1.26 1.7-3.27 2.27-2.69 0.72-5.1 0.71-2.41-0.03-4.65-1.41-2.23-1.41-4.42-4.73-2.19-3.32-4.41-9.03-2.24-5.71-4.63-14.49zm26.54-8.39q1.14 4.23 2.19 6.41 1.04 2.2 2.13 2.87 1.09 0.66 2.39 0.32 1.35-0.38 1.94-1.5 0.6-1.13 0.38-3.54-0.21-2.42-1.36-6.64l-3.44-12.53-7.66 2.08zm-15.54 4.22q1.16 4.32 2.12 6.94 0.95 2.62 2.1 3.64 1.14 1.03 2.92 0.56 1.79-0.49 2.25-1.96 0.48-1.47-0.04-4.2-0.51-2.73-1.67-7.06l-3.43-12.53-7.69 2.08z"/>
		<path class="s1" d="m602.21 360.34l-1.51-55.39 47.47-1.31 0.54 19.91-35.73 0.99 0.98 35.46z"/>
		<path class="s1" d="m590.81 419.05l10.92-56.12 46.62 9.05-10.41 53.54-11.55-2.22 6.63-33.97-7.32-1.44-5.6 28.73-8.96-1.73 5.61-28.73-7.27-1.41-7.13 36.55z"/>
	</g>
</svg>